<?xml version="1.0" encoding="UTF-8"?>
<svg id="Layer_1" xmlns="http://www.w3.org/2000/svg" version="1.1" viewBox="0 0 800 800">
  <!-- Generator: Adobe Illustrator 29.1.0, SVG Export Plug-In . SVG Version: 2.1.0 Build 142)  -->
  <defs>
    <style>
      .st0 {
        fill: #292d32;
        isolation: isolate;
        opacity: .4;
      }

      .st1 {
        fill: #1c274c;
      }
    </style>
  </defs>
  <path class="st0" d="M567.6,0H232.4C86.8,0,0,86.8,0,232.4v334.8c0,146,86.8,232.8,232.4,232.8h334.8c145.6,0,232.4-86.8,232.4-232.4V232.4C800,86.8,713.2,0,567.6,0Z"/>
  <path class="st1" d="M792.9,67.3c-45.6,113.3-149,261.4-248,358.3-14.3-89.5-85.6-159.4-175.9-172C466.3,154.6,615.3,49.5,729.1,3.5c20-7.8,40.4-1.7,52.5,10.9,13.5,13,19.5,33,11.3,53Z"/>
  <path class="st0" d="M544.9,425.2c-17.4,16.9-34.7,32.6-51.2,45.6l-68.2,54.7c-8.7,6.1-17.4,11.3-26.9,15.6,0-6.5-.9-13-1.3-20-3.9-28.7-16.9-56-40.4-79.5-23.9-23.5-52.5-36.9-81.6-40.8-6.9-.9-14.3-.9-20.8-.9,3.9-10.9,9.6-20.8,16.9-29.1l54.3-68.2c13-16.5,27.8-33,43.9-49.5,89.9,12.6,161.6,82.9,175.5,172Z"/>
  <path class="st1" d="M398.6,541.6c0,38.2-14.8,74.7-42.1,102.1-21.3,21.3-49.5,36-84.3,40.4l-85.1,9.6c-46.5,5.2-86.4-34.7-81.2-81.6l9.6-85.1c8.3-76,71.7-124.6,139-125.9,6.5-.4,13.9,0,20.8.9,29.5,3.9,57.8,17.4,81.6,40.8,23,23,36.5,50.8,40.4,79.5.4,6.5,1.3,13,1.3,19.5Z"/>
</svg>