<?xml version="1.0" encoding="UTF-8"?>
<svg id="Layer_1" xmlns="http://www.w3.org/2000/svg" version="1.1" viewBox="0 0 800 800">
  <!-- Generator: Adobe Illustrator 29.1.0, SVG Export Plug-In . SVG Version: 2.1.0 Build 142)  -->
  <defs>
    <style>
      .st0 {
        fill: #fff;
      }

      .st1 {
        fill: #292d32;
        isolation: isolate;
        opacity: .4;
      }
    </style>
  </defs>
  <path class="st1" d="M567.1-.1H231.9C86.3-.1-.5,86.7-.5,232.3v334.8c0,146,86.8,232.8,232.4,232.8h334.8c145.6,0,232.4-86.8,232.4-232.4V232.3C799.5,86.7,712.7-.1,567.1-.1Z"/>
  <path class="st0" d="M288.8,240.8c-24.3,4.6-60.2,46.2-44.4,62l97.3,97.2-97.3,97.2c-19.5,19.5,38.9,77.8,58.4,58.3l97.3-97.2,97.3,97.2c19.5,19.5,77.8-38.9,58.4-58.3l-97.3-97.2,97.3-97.2c19.5-19.5-38.9-77.8-58.4-58.3l-97.3,97.2-97.3-97.2c-3.7-3.6-8.4-4.7-14-3.7h0ZM400,80.9c-176.2,0-319.1,142.9-319.1,319.1s142.9,319.1,319.1,319.1,319.1-142.9,319.1-319.1S576.2,80.9,400,80.9ZM400,160.7c132.2,0,239.3,107.2,239.3,239.3s-107.2,239.3-239.3,239.3-239.3-107.2-239.3-239.3c0-132.2,107.2-239.3,239.3-239.3Z"/>
</svg>