<?xml version="1.0" encoding="UTF-8"?>
<svg id="Layer_1" xmlns="http://www.w3.org/2000/svg" version="1.1" viewBox="0 0 800 800">
  <!-- Generator: Adobe Illustrator 29.1.0, SVG Export Plug-In . SVG Version: 2.1.0 Build 142)  -->
  <defs>
    <style>
      .st0 {
        fill: #fff;
        fill-rule: evenodd;
      }

      .st1 {
        fill: #292d32;
        isolation: isolate;
        opacity: .4;
      }
    </style>
  </defs>
  <path class="st1" d="M567.1-.1H231.9C86.3-.1-.5,86.7-.5,232.3v334.8c0,146,86.8,232.8,232.4,232.8h334.8c145.6,0,232.4-86.8,232.4-232.4V232.3C799.5,86.7,712.7-.1,567.1-.1Z"/>
  <path class="st0" d="M400,694.3c-138.8,0-208.2,0-251.3-43.1-43.1-43.1-43.1-112.5-43.1-251.3s0-208.2,43.1-251.3c43.1-43.1,112.5-43.1,251.3-43.1s208.2,0,251.3,43.1c43.1,43.1,43.1,112.5,43.1,251.3s0,208.2-43.1,251.3c-43.1,43.1-112.5,43.1-251.3,43.1ZM518.6,310.7c8.6,8.6,8.6,22.6,0,31.2l-147.2,147.2c-8.6,8.6-22.6,8.6-31.2,0l-58.9-58.9c-8.6-8.6-8.6-22.6,0-31.2,8.6-8.6,22.6-8.6,31.2,0l43.3,43.3,131.6-131.6c8.6-8.6,22.6-8.6,31.2,0Z"/>
</svg>