<?xml version="1.0" encoding="UTF-8"?>
<svg id="Layer_1" xmlns="http://www.w3.org/2000/svg" version="1.1" viewBox="0 0 800 800">
  <!-- Generator: Adobe Illustrator 29.1.0, SVG Export Plug-In . SVG Version: 2.1.0 Build 142)  -->
  <defs>
    <style>
      .st0 {
        display: none;
        fill: #292d32;
        opacity: .4;
      }

      .st0, .st1 {
        isolation: isolate;
      }

      .st1, .st2 {
        fill: #1c274c;
      }

      .st1, .st3 {
        opacity: .5;
      }
    </style>
  </defs>
  <path class="st0" d="M567.8,0H232.6C87,0,.2,86.8.2,232.4v334.8c0,146,86.8,232.8,232.4,232.8h334.8c145.6,0,232.4-86.8,232.4-232.4V232.4C800.2,86.8,713.4,0,567.8,0Z"/>
  <path class="st1" d="M494.6,53.6c-38.1,0-68.8,30.7-130.1,92l-180.3,180.3,260.2,260.2,180.3-180.3c61.3-61.3,92-92,92-130.1s-30.7-68.8-92-130.1c-61.3-61.3-92-92-130.1-92Z"/>
  <path class="st2" d="M444.4,586L184.3,325.9l-36.5,36.5c-61.3,61.3-92,92-92,130.1s30.7,68.8,92,130.1c61.3,61.3,92,92,130.1,92s68.8-30.7,130.1-92l36.5-36.5Z"/>
  <g class="st3">
    <path class="st2" d="M277.3,714.5h-1.2c.4,0,.8,0,1.2,0Z"/>
    <path class="st2" d="M278.4,714.5c29.2-.2,54.2-18.6,92.2-55.1h346.1c15.2,0,27.5,12.3,27.5,27.5s-12.3,27.5-27.5,27.5h-438.3Z"/>
  </g>
</svg>