<?xml version="1.0" encoding="UTF-8"?>
<svg id="Layer_1" xmlns="http://www.w3.org/2000/svg" version="1.1" viewBox="0 0 800 800">
  <!-- Generator: Adobe Illustrator 29.1.0, SVG Export Plug-In . SVG Version: 2.1.0 Build 142)  -->
  <defs>
    <style>
      .st0 {
        fill: #292d32;
        isolation: isolate;
        opacity: .4;
      }

      .st1 {
        fill: #1c274c;
        stroke: #292d32;
        stroke-miterlimit: 10;
      }
    </style>
  </defs>
  <path class="st0" d="M567.1-.1H231.9C86.3-.1-.5,86.7-.5,232.3v334.8c0,146,86.8,232.8,232.4,232.8h334.8c145.6,0,232.4-86.8,232.4-232.4V232.3C799.5,86.7,712.7-.1,567.1-.1Z"/>
  <path class="st1" d="M118.5,576.2c0,29.3,10.3,54,31,74.3,20.6,20.3,45.6,30.6,74.9,31h351.9c28.9,0,53.7-10.3,74.3-31,20.6-20.6,31-45.4,31-74.3V224.3c0-29.3-10.3-54.2-31-74.9-20.6-20.6-45.4-31-74.3-31H224.3c-29.3,0-54.2,10.3-74.9,31-20.6,20.6-31,45.6-31,74.9v351.9h0ZM188.9,576.2V224.3c0-9.8,3.4-18,10.1-24.8s15.2-10.3,25.3-10.7h351.9c9.4,0,17.6,3.6,24.8,10.7s10.5,15.4,10.1,24.8v351.9c0,9.8-3.4,18-10.1,24.8-6.8,6.8-15,10.1-24.8,10.1H224.3c-9.8,0-18.2-3.4-25.3-10.1-7.1-6.8-10.5-15-10.1-24.8h0ZM224.3,540.8c0,9.8,3.4,18.2,10.1,25.3,6.8,7.1,15,10.5,24.8,10.1h281.5c9.8,0,18-3.4,24.8-10.1s10.3-15.2,10.7-25.3v-16.3c-2.6-5.3-9.2-21-19.7-47.3-10.5-26.3-19.9-47.3-28.2-63.1-8.3-15.8-15.8-28.1-22.5-37.2-6.4-6.8-12.9-10.3-19.7-10.7-6.8-.4-13.5,1.9-20.3,6.8-6.8,4.9-13.5,11.4-20.3,19.7-6.8,8.3-13.7,17.5-20.8,27.6-7.1,10.1-13.9,20.1-20.3,29.8-6.4,9.8-13.1,19.1-20.3,28.2s-13.5,16-19.1,20.8c-5.6,4.9-12,7.5-19.1,7.9-6.8,0-16.5-8.4-29.3-25.3-1.9-2.3-4.7-5.8-8.4-10.7-13.1-17.6-22.5-28.3-28.2-32.1-9-6-16-3.9-20.8,6.2-2.6,6-8.1,19.1-16.3,39.4-8.3,20.3-14.5,35.3-18.6,45v11.3h0ZM224.3,277.3c0,14.6,5.1,27,15.2,37.2,10.1,10.1,22.5,15.2,37.2,15.2s27.2-5.1,37.7-15.2c10.5-10.1,15.6-22.5,15.2-37.2s-5.4-27.2-15.2-37.7c-9.8-10.5-22.3-15.6-37.7-15.2-15.4.4-27.8,5.4-37.2,15.2-9.4,9.8-14.5,22.3-15.2,37.7Z"/>
</svg>